<svg width="80" height="80" viewBox="0 0 80 80" fill="none" xmlns="http://www.w3.org/2000/svg">
<path d="M6.6665 16.6667C6.6665 13.524 6.6665 11.9526 7.6428 10.9763C8.61914 10 10.1905 10 13.3332 10H66.6665C69.8092 10 71.3805 10 72.3568 10.9763C73.3332 11.9526 73.3332 13.524 73.3332 16.6667C73.3332 19.8094 73.3332 21.3807 72.3568 22.357C71.3805 23.3333 69.8092 23.3333 66.6665 23.3333H13.3332C10.1905 23.3333 8.61914 23.3333 7.6428 22.357C6.6665 21.3807 6.6665 19.8094 6.6665 16.6667Z" fill="black"/>
<path d="M66.8962 28.3331C67.3668 28.3333 67.8502 28.3335 68.3332 28.3268V43.333C68.3332 55.9037 68.3332 62.1893 64.4278 66.0943C60.6098 69.9123 54.5172 69.9977 42.4998 69.9997V46.5143L48.1415 52.783C49.0652 53.8093 50.6458 53.8927 51.6722 52.969C52.6985 52.0453 52.7818 50.4647 51.8582 49.4383L41.8582 38.3273C41.3838 37.8003 40.7085 37.4997 39.9998 37.4997C39.2912 37.4997 38.6158 37.8003 38.1415 38.3273L28.1416 49.4383C27.218 50.4647 27.3012 52.0453 28.3274 52.969C29.3537 53.8927 30.9344 53.8093 31.8581 52.783L37.4998 46.5143V69.9997C25.4827 69.9977 19.3897 69.9123 15.5717 66.0943C11.6665 62.1893 11.6665 55.9037 11.6665 43.333V28.3268C12.1494 28.3335 12.6331 28.3333 13.1036 28.3331H66.8962Z" fill="black"/>
</svg>
